<svg id="visual" viewBox="0 0 900 450" width="900" height="450" xmlns="http://www.w3.org/2000/svg" xmlns:xlink="http://www.w3.org/1999/xlink" version="1.1"><rect x="0" y="0" width="900" height="450" fill="#17243d"></rect><path d="M0 380L21.5 366.7C43 353.3 86 326.7 128.8 311.2C171.7 295.7 214.3 291.3 257.2 306.3C300 321.3 343 355.7 385.8 368.2C428.7 380.7 471.3 371.3 514.2 371.3C557 371.3 600 380.7 642.8 371.2C685.7 361.7 728.3 333.3 771.2 318.2C814 303 857 301 878.5 300L900 299L900 451L878.5 451C857 451 814 451 771.2 451C728.3 451 685.7 451 642.8 451C600 451 557 451 514.2 451C471.3 451 428.7 451 385.8 451C343 451 300 451 257.2 451C214.3 451 171.7 451 128.8 451C86 451 43 451 21.5 451L0 451Z" fill="#0066FF" stroke-linecap="round" stroke-linejoin="miter"></path></svg>