<svg id="visual" viewBox="0 0 900 450" width="900" height="450" xmlns="http://www.w3.org/2000/svg" xmlns:xlink="http://www.w3.org/1999/xlink" version="1.1"><rect x="0" y="0" width="900" height="450" fill="#f9f9f9"></rect><path d="M0 350L21.5 343.8C43 337.7 86 325.3 128.8 316C171.7 306.7 214.3 300.3 257.2 310.8C300 321.3 343 348.7 385.8 354.2C428.7 359.7 471.3 343.3 514.2 339.2C557 335 600 343 642.8 352.5C685.7 362 728.3 373 771.2 368C814 363 857 342 878.5 331.5L900 321L900 451L878.5 451C857 451 814 451 771.2 451C728.3 451 685.7 451 642.8 451C600 451 557 451 514.2 451C471.3 451 428.7 451 385.8 451C343 451 300 451 257.2 451C214.3 451 171.7 451 128.8 451C86 451 43 451 21.5 451L0 451Z" fill="#41649a" stroke-linecap="round" stroke-linejoin="miter"></path></svg>